# xmcd
#
# Track frame offsets:
# 150
# 20092
# 38050
# 50875
# 70788
# 87632
# 100826
# 122089
# 142082
# 153984
#
# Disc length: 2378 seconds
#
#
# Revision: 0
# Processed by: cddbd v1.5.1PL2 Copyright (c) Steve Scherf et al.
# Submitted via: FreeRIP 2.945 
#
DISCID=8e09480a
DTITLE=Xiruzinho - Um parelheiro que tenho
DYEAR=0001
DGENRE=Vocal
TTITLE0=De pulperias
TTITLE1=convidando o guarani
TTITLE2=fronteira que nao tem fronteira
TTITLE3=Meu modo de cantar
TTITLE4=rio amazonas
TTITLE5=bochincho
TTITLE6=um parelheiro que tenho
TTITLE7=decima do potro baio
TTITLE8=maxixando
TTITLE9=america
EXTD=thcgodoy®
EXTT0=Xiruzinho
EXTT1=Xiruzinho
EXTT2=Xiruzinho
EXTT3=Xiruzinho
EXTT4=Xiruzinho
EXTT5=Xiruzinho
EXTT6=Xiruzinho
EXTT7=Xiruzinho
EXTT8=Xiruzinho
EXTT9=Xiruzinho
PLAYORDER=
